<?xml version="1.0" standalone="no"?>
<!DOCTYPE svg PUBLIC "-//W3C//DTD SVG 20010904//EN"
 "http://www.w3.org/TR/2001/REC-SVG-20010904/DTD/svg10.dtd">
<svg version="1.0" xmlns="http://www.w3.org/2000/svg"
 width="260.000000pt" height="260.000000pt" viewBox="0 0 260.000000 260.000000"
 preserveAspectRatio="xMidYMid meet">
<metadata>
Created by potrace 1.14, written by Peter Selinger 2001-2017
</metadata>
<g transform="translate(0.000000,260.000000) scale(0.100000,-0.100000)"
fill="#000000" stroke="none">
<path d="M1552 2350 c-12 -12 -22 -22 -22 -24 0 -2 -25 -84 -56 -182 -31 -99
-57 -183 -58 -189 -1 -5 -14 -48 -29 -95 -65 -208 -129 -416 -132 -430 -2 -8
-38 -125 -80 -260 -42 -135 -78 -252 -80 -260 -2 -8 -27 -89 -55 -180 -88
-281 -122 -394 -126 -414 -8 -40 35 -86 80 -86 49 0 70 28 104 137 41 131 254
824 352 1143 43 140 87 284 99 320 38 123 129 425 135 451 5 24 -13 64 -38 81
-21 15 -72 8 -94 -12z"/>
<path d="M724 1900 c-16 -10 -149 -139 -296 -286 -274 -276 -293 -302 -268
-348 6 -13 137 -148 289 -300 266 -266 280 -278 316 -278 23 0 44 7 56 19 22
22 32 69 19 93 -5 10 -119 126 -252 259 l-243 241 243 242 c134 134 248 251
254 261 12 23 2 70 -20 90 -27 24 -66 27 -98 7z"/>
<path d="M1799 1906 c-30 -15 -53 -60 -45 -90 3 -13 117 -134 253 -270 l248
-246 -244 -242 c-134 -133 -248 -254 -253 -270 -20 -58 35 -114 96 -97 34 10
556 522 582 573 10 17 13 38 9 55 -6 25 -495 527 -557 572 -36 26 -60 30 -89
15z"/>
</g>
</svg>
