<svg width="16" height="16" viewBox="0 0 16 16" fill="none" xmlns="http://www.w3.org/2000/svg">
<path d="M7.53315 2.39926H8.46661C8.54959 2.39926 8.59107 2.44075 8.59107 2.52372V13.4763C8.59107 13.5593 8.54959 13.6008 8.46661 13.6008H7.53315C7.45018 13.6008 7.40869 13.5593 7.40869 13.4763V2.52372C7.40869 2.44075 7.45018 2.39926 7.53315 2.39926Z" fill="white"/>
<path d="M2.77265 7.40881H13.2274C13.3104 7.40881 13.3519 7.4503 13.3519 7.53327V8.46673C13.3519 8.54971 13.3104 8.59119 13.2274 8.59119H2.77265C2.68968 8.59119 2.64819 8.54971 2.64819 8.46673V7.53327C2.64819 7.4503 2.68968 7.40881 2.77265 7.40881Z" fill="white"/>
</svg>
