<svg width="24" height="24" viewBox="0 0 24 24" fill="none" xmlns="http://www.w3.org/2000/svg">
<g clip-path="url(#clip0_36_22)">
<path fill-rule="evenodd" clip-rule="evenodd" d="M22.281 16.719C22.3508 16.7887 22.4063 16.8715 22.4441 16.9626C22.4819 17.0537 22.5013 17.1514 22.5013 17.25C22.5013 17.3487 22.4819 17.4464 22.4441 17.5375C22.4063 17.6286 22.3508 17.7114 22.281 17.781L16.281 23.781C16.1402 23.9219 15.9492 24.001 15.75 24.001C15.5508 24.001 15.3598 23.9219 15.219 23.781C15.0782 23.6402 14.9991 23.4492 14.9991 23.25C14.9991 23.0509 15.0782 22.8599 15.219 22.719L19.9395 18H5.25C4.25544 18 3.30161 17.6049 2.59835 16.9017C1.89509 16.1984 1.5 15.2446 1.5 14.25L1.5 2.25003C1.5 2.05112 1.57902 1.86035 1.71967 1.7197C1.86032 1.57904 2.05109 1.50003 2.25 1.50003C2.44891 1.50003 2.63968 1.57904 2.78033 1.7197C2.92098 1.86035 3 2.05112 3 2.25003L3 14.25C3 14.8468 3.23705 15.4191 3.65901 15.841C4.08097 16.263 4.65326 16.5 5.25 16.5H19.9395L15.219 11.781C15.0782 11.6402 14.9991 11.4492 14.9991 11.25C14.9991 11.0509 15.0782 10.8599 15.219 10.719C15.3598 10.5782 15.5508 10.4991 15.75 10.4991C15.9492 10.4991 16.1402 10.5782 16.281 10.719L22.281 16.719Z" fill="black"/>
</g>
<defs>
<clipPath id="clip0_36_22">
<rect width="24" height="24" fill="white" transform="translate(0 24) rotate(-90)"/>
</clipPath>
</defs>
</svg>
