<svg width="32" height="32" viewBox="0 0 32 32" fill="none" xmlns="http://www.w3.org/2000/svg">
<path d="M20.9561 3.294C20.9947 3.16846 21.0082 3.03654 20.9958 2.90578C20.9834 2.77502 20.9454 2.64797 20.884 2.5319C20.8225 2.41583 20.7388 2.313 20.6375 2.22928C20.5363 2.14557 20.4196 2.08261 20.2941 2.044C20.1685 2.00539 20.0366 1.99189 19.9059 2.00427C19.7751 2.01664 19.648 2.05465 19.532 2.11612C19.4159 2.17759 19.3131 2.26132 19.2294 2.36254C19.1456 2.46375 19.0827 2.58046 19.0441 2.706L11.0441 28.706C10.9661 28.9596 10.992 29.2337 11.1162 29.4681C11.2403 29.7025 11.4525 29.878 11.7061 29.956C11.9596 30.034 12.2338 30.008 12.4682 29.8839C12.7026 29.7597 12.8781 29.5476 12.9561 29.294L20.9561 3.294ZM9.70808 8.292C9.8012 8.38489 9.87509 8.49524 9.9255 8.61674C9.97592 8.73823 10.0019 8.86847 10.0019 9C10.0019 9.13154 9.97592 9.26178 9.9255 9.38327C9.87509 9.50476 9.8012 9.61511 9.70808 9.708L3.41408 16L9.70808 22.292C9.89585 22.4798 10.0013 22.7345 10.0013 23C10.0013 23.2656 9.89585 23.5202 9.70808 23.708C9.5203 23.8958 9.26563 24.0013 9.00008 24.0013C8.73453 24.0013 8.47985 23.8958 8.29208 23.708L1.29208 16.708C1.19895 16.6151 1.12507 16.5048 1.07465 16.3833C1.02424 16.2618 0.998291 16.1315 0.998291 16C0.998291 15.8685 1.02424 15.7382 1.07465 15.6167C1.12507 15.4952 1.19895 15.3849 1.29208 15.292L8.29208 8.292C8.38497 8.19888 8.49532 8.12499 8.61681 8.07458C8.7383 8.02416 8.86854 7.99822 9.00008 7.99822C9.13161 7.99822 9.26186 8.02416 9.38335 8.07458C9.50484 8.12499 9.61519 8.19888 9.70808 8.292ZM22.2921 8.292C22.199 8.38489 22.1251 8.49524 22.0747 8.61674C22.0242 8.73823 21.9983 8.86847 21.9983 9C21.9983 9.13154 22.0242 9.26178 22.0747 9.38327C22.1251 9.50476 22.199 9.61511 22.2921 9.708L28.5861 16L22.2921 22.292C22.1991 22.385 22.1253 22.4954 22.075 22.6168C22.0247 22.7383 21.9988 22.8685 21.9988 23C21.9988 23.1315 22.0247 23.2617 22.075 23.3832C22.1253 23.5047 22.1991 23.615 22.2921 23.708C22.3851 23.801 22.4954 23.8747 22.6169 23.9251C22.7384 23.9754 22.8686 24.0013 23.0001 24.0013C23.1316 24.0013 23.2618 23.9754 23.3832 23.9251C23.5047 23.8747 23.6151 23.801 23.7081 23.708L30.7081 16.708C30.8012 16.6151 30.8751 16.5048 30.9255 16.3833C30.9759 16.2618 31.0019 16.1315 31.0019 16C31.0019 15.8685 30.9759 15.7382 30.9255 15.6167C30.8751 15.4952 30.8012 15.3849 30.7081 15.292L23.7081 8.292C23.6152 8.19888 23.5048 8.12499 23.3833 8.07458C23.2619 8.02416 23.1316 7.99822 23.0001 7.99822C22.8685 7.99822 22.7383 8.02416 22.6168 8.07458C22.4953 8.12499 22.385 8.19888 22.2921 8.292Z" fill="#9D29F8"/>
<path d="M20.9561 3.294C20.9947 3.16846 21.0082 3.03654 20.9958 2.90578C20.9834 2.77502 20.9454 2.64797 20.884 2.5319C20.8225 2.41583 20.7388 2.313 20.6375 2.22928C20.5363 2.14557 20.4196 2.08261 20.2941 2.044C20.1685 2.00539 20.0366 1.99189 19.9059 2.00427C19.7751 2.01664 19.648 2.05465 19.532 2.11612C19.4159 2.17759 19.3131 2.26132 19.2294 2.36254C19.1456 2.46375 19.0827 2.58046 19.0441 2.706L11.0441 28.706C10.9661 28.9596 10.992 29.2337 11.1162 29.4681C11.2403 29.7025 11.4525 29.878 11.7061 29.956C11.9596 30.034 12.2338 30.008 12.4682 29.8839C12.7026 29.7597 12.8781 29.5476 12.9561 29.294L20.9561 3.294ZM9.70808 8.292C9.8012 8.38489 9.87509 8.49524 9.9255 8.61674C9.97592 8.73823 10.0019 8.86847 10.0019 9C10.0019 9.13154 9.97592 9.26178 9.9255 9.38327C9.87509 9.50476 9.8012 9.61511 9.70808 9.708L3.41408 16L9.70808 22.292C9.89585 22.4798 10.0013 22.7345 10.0013 23C10.0013 23.2656 9.89585 23.5202 9.70808 23.708C9.5203 23.8958 9.26563 24.0013 9.00008 24.0013C8.73453 24.0013 8.47985 23.8958 8.29208 23.708L1.29208 16.708C1.19895 16.6151 1.12507 16.5048 1.07465 16.3833C1.02424 16.2618 0.998291 16.1315 0.998291 16C0.998291 15.8685 1.02424 15.7382 1.07465 15.6167C1.12507 15.4952 1.19895 15.3849 1.29208 15.292L8.29208 8.292C8.38497 8.19888 8.49532 8.12499 8.61681 8.07458C8.7383 8.02416 8.86854 7.99822 9.00008 7.99822C9.13161 7.99822 9.26186 8.02416 9.38335 8.07458C9.50484 8.12499 9.61519 8.19888 9.70808 8.292ZM22.2921 8.292C22.199 8.38489 22.1251 8.49524 22.0747 8.61674C22.0242 8.73823 21.9983 8.86847 21.9983 9C21.9983 9.13154 22.0242 9.26178 22.0747 9.38327C22.1251 9.50476 22.199 9.61511 22.2921 9.708L28.5861 16L22.2921 22.292C22.1991 22.385 22.1253 22.4954 22.075 22.6168C22.0247 22.7383 21.9988 22.8685 21.9988 23C21.9988 23.1315 22.0247 23.2617 22.075 23.3832C22.1253 23.5047 22.1991 23.615 22.2921 23.708C22.3851 23.801 22.4954 23.8747 22.6169 23.9251C22.7384 23.9754 22.8686 24.0013 23.0001 24.0013C23.1316 24.0013 23.2618 23.9754 23.3832 23.9251C23.5047 23.8747 23.6151 23.801 23.7081 23.708L30.7081 16.708C30.8012 16.6151 30.8751 16.5048 30.9255 16.3833C30.9759 16.2618 31.0019 16.1315 31.0019 16C31.0019 15.8685 30.9759 15.7382 30.9255 15.6167C30.8751 15.4952 30.8012 15.3849 30.7081 15.292L23.7081 8.292C23.6152 8.19888 23.5048 8.12499 23.3833 8.07458C23.2619 8.02416 23.1316 7.99822 23.0001 7.99822C22.8685 7.99822 22.7383 8.02416 22.6168 8.07458C22.4953 8.12499 22.385 8.19888 22.2921 8.292Z" stroke="#9D29F8"/>
</svg>
